# xmcd CD database file
#
# Track frame offsets:
#	150
#	16602
#	26052
#	46615
#	72901
#	95153
#	116261
#	134309
#	156651
#	174408
#	194508
#	213882
#	233898
#	257491
#	274732
#	292405
#
# Disc length: 4231 seconds
#
# Revision: 4
# Processed by: cddbd v1.5.1PL0 Copyright (c) Steve Scherf et al.
# Submitted via: CDex 1.51
#
DISCID=e6108510
DTITLE=Sui Generis - Obras Cumbres [CD 2)
DYEAR=1900
DGENRE=
TTITLE0=Pequeñas delicias de la vida conyugal
TTITLE1=El tuerto y los ciegos
TTITLE2=Musica de fondo para cualquier fiesta animada
TTITLE3=Las increibles aventuras del Señor Tijeras
TTITLE4=Botas Locas
TTITLE5=Alto en la torre
TTITLE6=El fantasma de Canterville
TTITLE7=Confesiones de invierno
TTITLE8=Canción para mi muerte
TTITLE9=Zapando con la gente
TTITLE10=Aprendizaje
TTITLE11=Cuando ya me empiece a quedar solo
TTITLE12=Bubulina
TTITLE13=Pequeñas delicias de la vida conyugal
TTITLE14=Rasguña las piedras
TTITLE15=Blues del levante
EXTD=
EXTT0=
EXTT1=
EXTT2=
EXTT3=
EXTT4=
EXTT5=
EXTT6=
EXTT7=
EXTT8=
EXTT9=
EXTT10=
EXTT11=
EXTT12=
EXTT13=
EXTT14=
EXTT15=
PLAYORDER=
